Coordinates
version=1
nRows=8
nColumns=40
inDegrees=yes

Units are S.I. units (second, meters, Newtons, ...)
If the header above contains a line with 'inDegrees', this indicates whether rotational values are in degrees (yes) or radians (no).

endheader
time	pelvis_tilt	pelvis_list	pelvis_rotation	pelvis_tx	pelvis_ty	pelvis_tz	hip_flexion_r	hip_adduction_r	hip_rotation_r	knee_angle_r	knee_angle_r_beta	ankle_angle_r	subtalar_angle_r	mtp_angle_r	hip_flexion_l	hip_adduction_l	hip_rotation_l	knee_angle_l	knee_angle_l_beta	ankle_angle_l	subtalar_angle_l	mtp_angle_l	lumbar_extension	lumbar_bending	lumbar_rotation	arm_flex_r	arm_add_r	arm_rot_r	elbow_flex_r	pro_sup_r	wrist_flex_r	wrist_dev_r	arm_flex_l	arm_add_l	arm_rot_l	elbow_flex_l	pro_sup_l	wrist_flex_l	wrist_dev_l
      0.35000000	      9.91872505	     -4.57198710	      0.77603665	     -0.84034497	      1.06469951	      0.24971285	    -10.52817587	      8.98821745	     -0.81660546	      3.68294073	      0.06427944	      1.30734032	      0.00000000	      0.00000000	     10.83995350	    -10.52657128	     -1.92229349	     51.69134028	      0.90218408	      3.47471188	      0.00000000	      0.00000000	    -28.54997900	      2.56166103	      9.11241519	     -3.99805299	      0.56088236	    -16.81809708	     49.28463396	     89.40935342	      0.22214693	     16.12060467	      1.74937289	     -0.88674532	     -1.02547395	     37.10999675	     89.49949242	    -14.77412473	      0.48458205
      0.36000000	     10.18493711	     -4.28052172	     -0.01635765	     -0.82737421	      1.06487044	      0.25151097	    -11.66722483	      8.59808966	      0.10009591	      3.67845324	      0.06420112	      2.03099514	      0.00000000	      0.00000000	     10.97283014	    -10.36974705	     -3.13658957	     48.86721729	      0.85289384	      3.58547950	      0.00000000	      0.00000000	    -28.89151192	      1.70385250	      8.95178043	     -3.18445513	      0.30572228	    -15.75950747	     49.80163935	     89.41024098	      0.07796500	     15.98362334	      0.45745580	     -0.83320051	     -2.26871452	     36.81562392	     89.49835417	    -15.13485380	      0.02607564
      0.37000000	      9.92487980	     -4.54154392	      0.03614349	     -0.81460873	      1.06356389	      0.25204863	    -12.17611862	      8.94603382	      0.06675183	      3.64086348	      0.06354506	      2.51044824	      0.00000000	      0.00000000	     12.06911853	    -10.61226512	     -3.27553467	     46.27227948	      0.80760363	      3.67729677	      0.00000000	      0.00000000	    -28.63737582	      1.79702779	      8.87696841	     -2.88069007	      0.09308910	    -15.46795127	     50.79184279	     89.40134853	      0.13525982	     15.80940907	     -0.39129263	     -0.78393809	     -2.56843976	     36.06058172	     89.49110334	    -15.22761076	      0.12794448
      0.38000000	     10.36611931	     -4.13230431	     -0.71453125	     -0.80145211	      1.06353526	      0.25343369	    -13.56856914	      8.38370595	      0.79924152	      3.53027427	      0.06161491	      3.45606951	      0.00000000	      0.00000000	     11.74012309	    -10.26841193	     -4.64672453	     42.90647827	      0.74885932	      3.74863343	      0.00000000	      0.00000000	    -29.06490721	      0.86268103	      8.77630363	     -2.18910331	     -0.17552272	    -14.53364568	     51.37472100	     89.38882936	      0.13983737	     15.69640663	     -1.46242570	     -0.60089360	     -3.89370513	     35.38029736	     89.49195930	    -15.67994724	     -0.34860739
      0.39000000	     10.53367160	     -4.16210376	     -1.00358685	     -0.78846871	      1.06266056	      0.25418063	    -14.64213551	      8.37255432	      1.14816238	      3.37371500	      0.05888243	      4.00557076	      0.00000000	      0.00000000	     11.91163158	    -10.31551643	     -5.55576861	     39.64047309	      0.69185677	      3.48703732	      0.00000000	      0.00000000	    -29.23291339	      0.57560494	      7.95302083	     -1.16725402	     -0.49364982	    -13.01273606	     51.64999619	     89.37432028	     -0.04338524	     15.46585232	     -2.92060155	     -0.37004295	     -5.61106975	     35.09814650	     89.49049973	    -16.79396571	     -1.28687877
      0.40000000	     10.73432338	     -4.12738561	     -1.29883401	     -0.77539703	      1.06162889	      0.25487742	    -15.75890289	      8.28194321	      1.39105019	      3.21100343	      0.05604258	      4.63871482	      0.00000000	      0.00000000	     11.92675189	    -10.26917076	     -6.60566936	     36.19270274	      0.63168183	      3.06415485	      0.00000000	      0.00000000	    -29.41061635	      0.22765704	      8.00180173	     -0.80902958	     -0.73392052	    -12.62299837	     52.57084824	     89.35904800	      0.01670148	     15.26745514	     -3.70467485	     -0.22366397	     -6.23984449	     34.24498334	     89.48432555	    -17.00210390	     -1.40566400
      0.41000000	     10.97096100	     -4.11900411	     -1.62688858	     -0.76226628	      1.06048289	      0.25548296	    -16.93070603	      8.19043922	      1.66878322	      3.03210423	      0.05292020	      5.23096173	      0.00000000	      0.00000000	     11.79470087	    -10.20900444	     -7.79055958	     32.59819437	      0.56894582	      2.50444290	      0.00000000	      0.00000000	    -29.61989832	     -0.09117358	      8.01016541	     -0.42281472	     -0.99773685	    -12.16008505	     53.48446684	     89.34316382	      0.13041425	     15.13933089	     -4.53296476	     -0.04790702	     -6.95341679	     33.45490031	     89.48108681	    -17.27180454	     -1.60752105
      0.42000000	     10.68933151	     -4.50349432	     -1.49357679	     -0.74912617	      1.05801472	      0.25530578	    -17.49845383	      8.65171665	      1.53358491	      2.91922525	      0.05095009	      5.79185576	      0.00000000	      0.00000000	     12.47518260	    -10.43393687	     -8.27735825	     29.33229199	      0.51194507	      2.21018271	      0.00000000	      0.00000000	    -29.23402088	      0.23635054	      7.93484745	     -0.22888290	     -1.31031818	    -11.85156804	     54.47111770	     89.33046692	      0.22275036	     14.98820208	     -5.31145421	      0.11847357	     -7.38665084	     32.60275918	     89.47021283	    -17.39300940	     -1.50447922
